<svg xmlns="http://www.w3.org/2000/svg" version="1.1" xmlns:xlink="http://www.w3.org/1999/xlink" xmlns:svgjs="http://svgjs.com/svgjs" width="1440" height="560" preserveAspectRatio="none" viewBox="0 0 1440 560"><g mask="url(&quot;#SvgjsMask1006&quot;)" fill="none"><path d="M417.94 582.71C573.22 582.71 719.72 564.43 1038.73 562.42 1357.74 560.41 1489.94 294.05 1659.52 288.02" stroke="rgba(86, 42, 240, 1)" stroke-width="2"></path><path d="M668.54 594.42C848.18 547.81 904.55 62.71 1178.99 55.42 1453.43 48.13 1557.48 188.7 1689.44 189.82" stroke="rgba(86, 42, 240, 1)" stroke-width="2"></path><path d="M402.34 650.15C539.69 599.8 487.08 189.17 761.54 188.2 1036 187.23 1289.65 436.58 1479.94 440.2" stroke="rgba(86, 42, 240, 1)" stroke-width="2"></path><path d="M181.29 623.79C305.59 622.58 420.4 491.35 660.53 491.32 900.66 491.29 900.15 561.32 1139.77 561.32 1379.39 561.32 1497.93 491.5 1619.01 491.32" stroke="rgba(86, 42, 240, 1)" stroke-width="2"></path><path d="M562.88 660.24C702.37 583.65 622.32 123.21 889.63 113.97 1156.95 104.73 1377.14 231.1 1543.14 231.57" stroke="rgba(86, 42, 240, 1)" stroke-width="2"></path></g><defs><mask id="SvgjsMask1006"><rect width="1440" height="560" fill="#ffffff"></rect></mask></defs></svg>